<svg width="442" height="69" viewBox="0 0 442 69" fill="none" xmlns="http://www.w3.org/2000/svg">
<rect width="442" height="69" rx="8" fill="#FDDB16"/>
<path d="M64.544 28.84H58.976V43H55.88V28.84H50.336V26.2H64.544V28.84ZM71.2983 43.168C70.0023 43.168 68.8343 42.888 67.7943 42.328C66.7543 41.768 65.9383 40.992 65.3463 40C64.7703 38.992 64.4823 37.856 64.4823 36.592C64.4823 35.328 64.7703 34.2 65.3463 33.208C65.9383 32.216 66.7543 31.44 67.7943 30.88C68.8343 30.32 70.0023 30.04 71.2983 30.04C72.6103 30.04 73.7863 30.32 74.8263 30.88C75.8663 31.44 76.6743 32.216 77.2503 33.208C77.8423 34.2 78.1383 35.328 78.1383 36.592C78.1383 37.856 77.8423 38.992 77.2503 40C76.6743 40.992 75.8663 41.768 74.8263 42.328C73.7863 42.888 72.6103 43.168 71.2983 43.168ZM71.2983 40.6C72.4023 40.6 73.3143 40.232 74.0343 39.496C74.7543 38.76 75.1143 37.792 75.1143 36.592C75.1143 35.392 74.7543 34.424 74.0343 33.688C73.3143 32.952 72.4023 32.584 71.2983 32.584C70.1943 32.584 69.2823 32.952 68.5623 33.688C67.8583 34.424 67.5063 35.392 67.5063 36.592C67.5063 37.792 67.8583 38.76 68.5623 39.496C69.2823 40.232 70.1943 40.6 71.2983 40.6ZM90.3899 36.328C91.9739 36.808 92.7659 37.832 92.7659 39.4C92.7659 40.552 92.3339 41.44 91.4699 42.064C90.6059 42.688 89.3259 43 87.6299 43H81.1019V30.184H87.3659C88.9339 30.184 90.1579 30.472 91.0379 31.048C91.9179 31.624 92.3579 32.44 92.3579 33.496C92.3579 34.152 92.1819 34.72 91.8299 35.2C91.4939 35.68 91.0139 36.056 90.3899 36.328ZM83.9579 35.536H87.1019C88.6539 35.536 89.4299 35 89.4299 33.928C89.4299 32.888 88.6539 32.368 87.1019 32.368H83.9579V35.536ZM87.3899 40.816C89.0379 40.816 89.8619 40.28 89.8619 39.208C89.8619 38.648 89.6699 38.232 89.2859 37.96C88.9019 37.672 88.3019 37.528 87.4859 37.528H83.9579V40.816H87.3899ZM100.737 30.04C102.625 30.04 104.065 30.496 105.057 31.408C106.065 32.304 106.569 33.664 106.569 35.488V43H103.737V41.44C103.369 42 102.841 42.432 102.153 42.736C101.481 43.024 100.665 43.168 99.7053 43.168C98.7453 43.168 97.9053 43.008 97.1853 42.688C96.4653 42.352 95.9053 41.896 95.5053 41.32C95.1213 40.728 94.9293 40.064 94.9293 39.328C94.9293 38.176 95.3533 37.256 96.2013 36.568C97.0653 35.864 98.4173 35.512 100.257 35.512H103.569V35.32C103.569 34.424 103.297 33.736 102.753 33.256C102.225 32.776 101.433 32.536 100.377 32.536C99.6573 32.536 98.9453 32.648 98.2413 32.872C97.5533 33.096 96.9693 33.408 96.4893 33.808L95.3133 31.624C95.9853 31.112 96.7933 30.72 97.7373 30.448C98.6813 30.176 99.6813 30.04 100.737 30.04ZM100.329 40.984C101.081 40.984 101.745 40.816 102.321 40.48C102.913 40.128 103.329 39.632 103.569 38.992V37.504H100.473C98.7453 37.504 97.8813 38.072 97.8813 39.208C97.8813 39.752 98.0973 40.184 98.5293 40.504C98.9613 40.824 99.5613 40.984 100.329 40.984ZM117.386 30.04C118.634 30.04 119.746 30.312 120.722 30.856C121.714 31.4 122.49 32.168 123.05 33.16C123.61 34.152 123.89 35.296 123.89 36.592C123.89 37.888 123.61 39.04 123.05 40.048C122.49 41.04 121.714 41.808 120.722 42.352C119.746 42.896 118.634 43.168 117.386 43.168C115.658 43.168 114.29 42.592 113.282 41.44V47.656H110.282V30.184H113.138V31.864C113.634 31.256 114.242 30.8 114.962 30.496C115.698 30.192 116.506 30.04 117.386 30.04ZM117.05 40.6C118.154 40.6 119.058 40.232 119.762 39.496C120.482 38.76 120.842 37.792 120.842 36.592C120.842 35.392 120.482 34.424 119.762 33.688C119.058 32.952 118.154 32.584 117.05 32.584C116.33 32.584 115.682 32.752 115.106 33.088C114.53 33.408 114.074 33.872 113.738 34.48C113.402 35.088 113.234 35.792 113.234 36.592C113.234 37.392 113.402 38.096 113.738 38.704C114.074 39.312 114.53 39.784 115.106 40.12C115.682 40.44 116.33 40.6 117.05 40.6ZM147.188 40.456V45.856H144.38V43H134.492V45.856H131.708V40.456H132.308C133.124 40.424 133.676 39.904 133.964 38.896C134.268 37.872 134.468 36.432 134.564 34.576L134.732 30.184H145.292V40.456H147.188ZM137.3 34.792C137.236 36.264 137.116 37.464 136.94 38.392C136.764 39.32 136.444 40.008 135.98 40.456H142.292V32.728H137.372L137.3 34.792ZM155.58 43.168C154.284 43.168 153.116 42.888 152.076 42.328C151.036 41.768 150.22 40.992 149.628 40C149.052 38.992 148.764 37.856 148.764 36.592C148.764 35.328 149.052 34.2 149.628 33.208C150.22 32.216 151.036 31.44 152.076 30.88C153.116 30.32 154.284 30.04 155.58 30.04C156.892 30.04 158.068 30.32 159.108 30.88C160.148 31.44 160.956 32.216 161.532 33.208C162.124 34.2 162.42 35.328 162.42 36.592C162.42 37.856 162.124 38.992 161.532 40C160.956 40.992 160.148 41.768 159.108 42.328C158.068 42.888 156.892 43.168 155.58 43.168ZM155.58 40.6C156.684 40.6 157.596 40.232 158.316 39.496C159.036 38.76 159.396 37.792 159.396 36.592C159.396 35.392 159.036 34.424 158.316 33.688C157.596 32.952 156.684 32.584 155.58 32.584C154.476 32.584 153.564 32.952 152.844 33.688C152.14 34.424 151.788 35.392 151.788 36.592C151.788 37.792 152.14 38.76 152.844 39.496C153.564 40.232 154.476 40.6 155.58 40.6ZM172.319 30.808C173.535 30.808 174.607 31.072 175.535 31.6C176.463 32.112 177.183 32.832 177.695 33.76C178.223 34.688 178.487 35.752 178.487 36.952C178.487 38.184 178.199 39.28 177.623 40.24C177.047 41.184 176.239 41.92 175.199 42.448C174.159 42.976 172.975 43.24 171.647 43.24C169.423 43.24 167.703 42.504 166.487 41.032C165.271 39.56 164.663 37.44 164.663 34.672C164.663 32.096 165.215 30.056 166.319 28.552C167.423 27.048 169.111 26.056 171.383 25.576L177.335 24.304L177.767 26.992L172.367 28.096C170.815 28.416 169.655 28.96 168.887 29.728C168.119 30.496 167.671 31.576 167.543 32.968C168.119 32.28 168.815 31.752 169.631 31.384C170.447 31 171.343 30.808 172.319 30.808ZM171.719 40.816C172.823 40.816 173.711 40.464 174.383 39.76C175.071 39.04 175.415 38.128 175.415 37.024C175.415 35.92 175.071 35.032 174.383 34.36C173.711 33.688 172.823 33.352 171.719 33.352C170.599 33.352 169.695 33.688 169.007 34.36C168.319 35.032 167.975 35.92 167.975 37.024C167.975 38.144 168.319 39.056 169.007 39.76C169.711 40.464 170.615 40.816 171.719 40.816ZM186.003 30.04C187.891 30.04 189.331 30.496 190.323 31.408C191.331 32.304 191.835 33.664 191.835 35.488V43H189.003V41.44C188.635 42 188.107 42.432 187.419 42.736C186.747 43.024 185.931 43.168 184.971 43.168C184.011 43.168 183.171 43.008 182.451 42.688C181.731 42.352 181.171 41.896 180.771 41.32C180.387 40.728 180.195 40.064 180.195 39.328C180.195 38.176 180.619 37.256 181.467 36.568C182.331 35.864 183.683 35.512 185.523 35.512H188.835V35.32C188.835 34.424 188.563 33.736 188.019 33.256C187.491 32.776 186.699 32.536 185.643 32.536C184.923 32.536 184.211 32.648 183.507 32.872C182.819 33.096 182.235 33.408 181.755 33.808L180.579 31.624C181.251 31.112 182.059 30.72 183.003 30.448C183.947 30.176 184.947 30.04 186.003 30.04ZM185.595 40.984C186.347 40.984 187.011 40.816 187.587 40.48C188.179 40.128 188.595 39.632 188.835 38.992V37.504H185.739C184.011 37.504 183.147 38.072 183.147 39.208C183.147 39.752 183.363 40.184 183.795 40.504C184.227 40.824 184.827 40.984 185.595 40.984ZM204.835 36.328C206.419 36.808 207.211 37.832 207.211 39.4C207.211 40.552 206.779 41.44 205.915 42.064C205.051 42.688 203.771 43 202.075 43H195.547V30.184H201.811C203.379 30.184 204.603 30.472 205.483 31.048C206.363 31.624 206.803 32.44 206.803 33.496C206.803 34.152 206.627 34.72 206.275 35.2C205.939 35.68 205.459 36.056 204.835 36.328ZM198.403 35.536H201.547C203.099 35.536 203.875 35 203.875 33.928C203.875 32.888 203.099 32.368 201.547 32.368H198.403V35.536ZM201.835 40.816C203.483 40.816 204.307 40.28 204.307 39.208C204.307 38.648 204.115 38.232 203.731 37.96C203.347 37.672 202.747 37.528 201.931 37.528H198.403V40.816H201.835ZM222.023 30.184V43H219.023V32.728H214.223L214.103 35.272C214.023 36.968 213.863 38.392 213.623 39.544C213.399 40.68 213.007 41.584 212.447 42.256C211.903 42.912 211.151 43.24 210.191 43.24C209.743 43.24 209.191 43.152 208.535 42.976L208.679 40.456C208.903 40.504 209.095 40.528 209.255 40.528C209.863 40.528 210.319 40.288 210.623 39.808C210.927 39.312 211.119 38.728 211.199 38.056C211.295 37.368 211.375 36.392 211.439 35.128L211.655 30.184H222.023ZM238.063 36.664C238.063 36.872 238.047 37.168 238.015 37.552H227.959C228.135 38.496 228.591 39.248 229.327 39.808C230.079 40.352 231.007 40.624 232.111 40.624C233.519 40.624 234.679 40.16 235.591 39.232L237.199 41.08C236.623 41.768 235.895 42.288 235.015 42.64C234.135 42.992 233.143 43.168 232.039 43.168C230.631 43.168 229.391 42.888 228.319 42.328C227.247 41.768 226.415 40.992 225.823 40C225.247 38.992 224.959 37.856 224.959 36.592C224.959 35.344 225.239 34.224 225.799 33.232C226.375 32.224 227.167 31.44 228.175 30.88C229.183 30.32 230.319 30.04 231.583 30.04C232.831 30.04 233.943 30.32 234.919 30.88C235.911 31.424 236.679 32.2 237.223 33.208C237.783 34.2 238.063 35.352 238.063 36.664ZM231.583 32.44C230.623 32.44 229.807 32.728 229.135 33.304C228.479 33.864 228.079 34.616 227.935 35.56H235.207C235.079 34.632 234.687 33.88 234.031 33.304C233.375 32.728 232.559 32.44 231.583 32.44ZM241.344 30.184H244.344V35.392H250.8V30.184H253.8V43H250.8V37.936H244.344V43H241.344V30.184ZM273.742 36.328C275.326 36.808 276.118 37.832 276.118 39.4C276.118 40.552 275.686 41.44 274.822 42.064C273.958 42.688 272.678 43 270.982 43H264.454V30.184H270.718C272.286 30.184 273.51 30.472 274.39 31.048C275.27 31.624 275.71 32.44 275.71 33.496C275.71 34.152 275.534 34.72 275.182 35.2C274.846 35.68 274.366 36.056 273.742 36.328ZM267.31 35.536H270.454C272.006 35.536 272.782 35 272.782 33.928C272.782 32.888 272.006 32.368 270.454 32.368H267.31V35.536ZM270.742 40.816C272.39 40.816 273.214 40.28 273.214 39.208C273.214 38.648 273.022 38.232 272.638 37.96C272.254 37.672 271.654 37.528 270.838 37.528H267.31V40.816H270.742ZM291.274 37.864H288.946V43H285.946V30.184H288.946V35.368H291.346L295.138 30.184H298.354L293.698 36.352L298.666 43H295.138L291.274 37.864ZM306.072 43.168C304.776 43.168 303.608 42.888 302.568 42.328C301.528 41.768 300.712 40.992 300.12 40C299.544 38.992 299.256 37.856 299.256 36.592C299.256 35.328 299.544 34.2 300.12 33.208C300.712 32.216 301.528 31.44 302.568 30.88C303.608 30.32 304.776 30.04 306.072 30.04C307.384 30.04 308.56 30.32 309.6 30.88C310.64 31.44 311.448 32.216 312.024 33.208C312.616 34.2 312.912 35.328 312.912 36.592C312.912 37.856 312.616 38.992 312.024 40C311.448 40.992 310.64 41.768 309.6 42.328C308.56 42.888 307.384 43.168 306.072 43.168ZM306.072 40.6C307.176 40.6 308.088 40.232 308.808 39.496C309.528 38.76 309.888 37.792 309.888 36.592C309.888 35.392 309.528 34.424 308.808 33.688C308.088 32.952 307.176 32.584 306.072 32.584C304.968 32.584 304.056 32.952 303.336 33.688C302.632 34.424 302.28 35.392 302.28 36.592C302.28 37.792 302.632 38.76 303.336 39.496C304.056 40.232 304.968 40.6 306.072 40.6ZM322.979 30.04C324.227 30.04 325.339 30.312 326.315 30.856C327.307 31.4 328.083 32.168 328.643 33.16C329.203 34.152 329.483 35.296 329.483 36.592C329.483 37.888 329.203 39.04 328.643 40.048C328.083 41.04 327.307 41.808 326.315 42.352C325.339 42.896 324.227 43.168 322.979 43.168C321.251 43.168 319.883 42.592 318.875 41.44V47.656H315.875V30.184H318.731V31.864C319.227 31.256 319.835 30.8 320.555 30.496C321.291 30.192 322.099 30.04 322.979 30.04ZM322.643 40.6C323.747 40.6 324.651 40.232 325.355 39.496C326.075 38.76 326.435 37.792 326.435 36.592C326.435 35.392 326.075 34.424 325.355 33.688C324.651 32.952 323.747 32.584 322.643 32.584C321.923 32.584 321.275 32.752 320.699 33.088C320.123 33.408 319.667 33.872 319.331 34.48C318.995 35.088 318.827 35.792 318.827 36.592C318.827 37.392 318.995 38.096 319.331 38.704C319.667 39.312 320.123 39.784 320.699 40.12C321.275 40.44 321.923 40.6 322.643 40.6ZM339.938 36.328C340.738 36.552 341.354 36.92 341.786 37.432C342.234 37.928 342.458 38.528 342.458 39.232C342.458 40.016 342.194 40.712 341.666 41.32C341.138 41.912 340.41 42.376 339.482 42.712C338.554 43.048 337.498 43.216 336.314 43.216C335.322 43.216 334.354 43.104 333.41 42.88C332.466 42.64 331.61 42.304 330.842 41.872L331.706 39.64C332.33 39.992 333.034 40.264 333.818 40.456C334.602 40.648 335.386 40.744 336.17 40.744C337.178 40.744 337.962 40.592 338.522 40.288C339.098 39.968 339.386 39.536 339.386 38.992C339.386 38.496 339.162 38.112 338.714 37.84C338.282 37.568 337.666 37.432 336.866 37.432H334.37V35.416H336.626C337.378 35.416 337.962 35.288 338.378 35.032C338.81 34.776 339.026 34.416 339.026 33.952C339.026 33.488 338.77 33.12 338.258 32.848C337.746 32.576 337.042 32.44 336.146 32.44C334.866 32.44 333.514 32.752 332.09 33.376L331.322 31.168C333.002 30.384 334.698 29.992 336.41 29.992C337.498 29.992 338.474 30.144 339.338 30.448C340.202 30.736 340.874 31.152 341.354 31.696C341.85 32.224 342.098 32.832 342.098 33.52C342.098 34.144 341.906 34.704 341.522 35.2C341.138 35.68 340.61 36.056 339.938 36.328ZM345.571 30.184H348.571V38.632L355.651 30.184H358.387V43H355.387V34.552L348.331 43H345.571V30.184ZM362.422 30.184H365.422V35.392H371.878V30.184H374.878V43H371.878V37.936H365.422V43H362.422V30.184ZM390.995 30.184L384.995 44.032C384.435 45.424 383.755 46.4 382.955 46.96C382.155 47.536 381.187 47.824 380.051 47.824C379.411 47.824 378.779 47.72 378.155 47.512C377.531 47.304 377.019 47.016 376.619 46.648L377.819 44.44C378.107 44.712 378.443 44.928 378.827 45.088C379.227 45.248 379.627 45.328 380.027 45.328C380.555 45.328 380.987 45.192 381.323 44.92C381.675 44.648 381.995 44.192 382.283 43.552L382.499 43.048L376.907 30.184H380.027L384.059 39.664L388.115 30.184H390.995Z" fill="#847E7E"/>
</svg>
