<svg width="270" height="70" viewBox="0 0 270 70" fill="none" xmlns="http://www.w3.org/2000/svg">
<rect width="270" height="70" rx="15" fill="#FDDB16"/>
<path d="M53.968 39.434V43.754H52.294V41H41.926L41.908 43.754H40.234L40.252 39.434H40.864C41.656 39.386 42.214 38.762 42.538 37.562C42.862 36.35 43.06 34.646 43.132 32.45L43.258 28.4H52.114V39.434H53.968ZM44.716 32.612C44.656 34.388 44.512 35.858 44.284 37.022C44.068 38.186 43.714 38.99 43.222 39.434H50.332V29.966H44.806L44.716 32.612ZM60.0159 41.108C59.0679 41.108 58.2159 40.898 57.4599 40.478C56.7039 40.058 56.1099 39.482 55.6779 38.75C55.2579 38.006 55.0479 37.166 55.0479 36.23C55.0479 35.294 55.2579 34.46 55.6779 33.728C56.1099 32.984 56.7039 32.408 57.4599 32C58.2159 31.58 59.0679 31.37 60.0159 31.37C60.9639 31.37 61.8099 31.58 62.5539 32C63.3099 32.408 63.8979 32.984 64.3179 33.728C64.7499 34.46 64.9659 35.294 64.9659 36.23C64.9659 37.166 64.7499 38.006 64.3179 38.75C63.8979 39.482 63.3099 40.058 62.5539 40.478C61.8099 40.898 60.9639 41.108 60.0159 41.108ZM60.0159 39.596C60.6279 39.596 61.1739 39.458 61.6539 39.182C62.1459 38.894 62.5299 38.498 62.8059 37.994C63.0819 37.478 63.2199 36.89 63.2199 36.23C63.2199 35.57 63.0819 34.988 62.8059 34.484C62.5299 33.968 62.1459 33.572 61.6539 33.296C61.1739 33.02 60.6279 32.882 60.0159 32.882C59.4039 32.882 58.8519 33.02 58.3599 33.296C57.8799 33.572 57.4959 33.968 57.2079 34.484C56.9319 34.988 56.7939 35.57 56.7939 36.23C56.7939 36.89 56.9319 37.478 57.2079 37.994C57.4959 38.498 57.8799 38.894 58.3599 39.182C58.8519 39.458 59.4039 39.596 60.0159 39.596ZM72.3211 31.784C73.2091 31.784 74.0011 31.982 74.6971 32.378C75.3931 32.774 75.9331 33.326 76.3171 34.034C76.7131 34.73 76.9111 35.528 76.9111 36.428C76.9111 37.352 76.7011 38.174 76.2811 38.894C75.8731 39.602 75.2911 40.154 74.5351 40.55C73.7911 40.946 72.9391 41.144 71.9791 41.144C70.3591 41.144 69.1051 40.592 68.2171 39.488C67.3411 38.372 66.9031 36.806 66.9031 34.79C66.9031 32.834 67.3051 31.304 68.1091 30.2C68.9131 29.084 70.1431 28.346 71.7991 27.986L76.1551 27.014L76.4071 28.598L72.3931 29.462C71.1451 29.738 70.2151 30.206 69.6031 30.866C68.9911 31.526 68.6431 32.474 68.5591 33.71C68.9671 33.098 69.4951 32.624 70.1431 32.288C70.7911 31.952 71.5171 31.784 72.3211 31.784ZM72.0151 39.704C72.6271 39.704 73.1671 39.566 73.6351 39.29C74.1151 39.014 74.4871 38.636 74.7511 38.156C75.0151 37.664 75.1471 37.106 75.1471 36.482C75.1471 35.534 74.8591 34.772 74.2831 34.196C73.7071 33.62 72.9511 33.332 72.0151 33.332C71.0791 33.332 70.3171 33.62 69.7291 34.196C69.1531 34.772 68.8651 35.534 68.8651 36.482C68.8651 37.106 68.9971 37.664 69.2611 38.156C69.5371 38.636 69.9151 39.014 70.3951 39.29C70.8751 39.566 71.4151 39.704 72.0151 39.704ZM82.6932 31.37C84.0132 31.37 85.0212 31.694 85.7172 32.342C86.4252 32.99 86.7792 33.956 86.7792 35.24V41H85.1412V39.74C84.8532 40.184 84.4392 40.526 83.8992 40.766C83.3712 40.994 82.7412 41.108 82.0092 41.108C80.9412 41.108 80.0832 40.85 79.4352 40.334C78.7992 39.818 78.4812 39.14 78.4812 38.3C78.4812 37.46 78.7872 36.788 79.3992 36.284C80.0112 35.768 80.9832 35.51 82.3152 35.51H85.0512V35.168C85.0512 34.424 84.8352 33.854 84.4032 33.458C83.9712 33.062 83.3352 32.864 82.4952 32.864C81.9312 32.864 81.3792 32.96 80.8392 33.152C80.2992 33.332 79.8432 33.578 79.4712 33.89L78.7512 32.594C79.2432 32.198 79.8312 31.898 80.5152 31.694C81.1992 31.478 81.9252 31.37 82.6932 31.37ZM82.2972 39.776C82.9572 39.776 83.5272 39.632 84.0072 39.344C84.4872 39.044 84.8352 38.624 85.0512 38.084V36.752H82.3872C80.9232 36.752 80.1912 37.244 80.1912 38.228C80.1912 38.708 80.3772 39.086 80.7492 39.362C81.1212 39.638 81.6372 39.776 82.2972 39.776ZM96.3888 36.05C97.6248 36.362 98.2428 37.136 98.2428 38.372C98.2428 39.212 97.9248 39.86 97.2888 40.316C96.6648 40.772 95.7288 41 94.4808 41H89.8908V31.46H94.3188C95.4468 31.46 96.3288 31.676 96.9648 32.108C97.6008 32.528 97.9188 33.128 97.9188 33.908C97.9188 34.412 97.7808 34.85 97.5048 35.222C97.2408 35.582 96.8688 35.858 96.3888 36.05ZM91.5828 35.564H94.1748C94.8348 35.564 95.3328 35.444 95.6688 35.204C96.0168 34.964 96.1908 34.616 96.1908 34.16C96.1908 33.248 95.5188 32.792 94.1748 32.792H91.5828V35.564ZM94.3548 39.668C95.0748 39.668 95.6148 39.554 95.9748 39.326C96.3348 39.098 96.5148 38.744 96.5148 38.264C96.5148 37.772 96.3468 37.406 96.0108 37.166C95.6868 36.926 95.1708 36.806 94.4628 36.806H91.5828V39.668H94.3548ZM100.947 31.46H102.675V38.408L108.525 31.46H110.091V41H108.363V34.052L102.531 41H100.947V31.46ZM120.555 32.972H117.063V41H115.335V32.972H111.843V31.46H120.555V32.972ZM126.732 34.7C127.944 34.712 128.868 34.988 129.504 35.528C130.14 36.068 130.458 36.83 130.458 37.814C130.458 38.846 130.11 39.644 129.414 40.208C128.73 40.76 127.746 41.03 126.462 41.018L122.322 41V31.46H124.05V34.682L126.732 34.7ZM126.318 39.704C127.098 39.716 127.686 39.56 128.082 39.236C128.49 38.912 128.694 38.432 128.694 37.796C128.694 37.172 128.496 36.716 128.1 36.428C127.716 36.14 127.122 35.99 126.318 35.978L124.05 35.942V39.686L126.318 39.704ZM144.008 36.05C145.244 36.362 145.862 37.136 145.862 38.372C145.862 39.212 145.544 39.86 144.908 40.316C144.284 40.772 143.348 41 142.1 41H137.51V31.46H141.938C143.066 31.46 143.948 31.676 144.584 32.108C145.22 32.528 145.538 33.128 145.538 33.908C145.538 34.412 145.4 34.85 145.124 35.222C144.86 35.582 144.488 35.858 144.008 36.05ZM139.202 35.564H141.794C142.454 35.564 142.952 35.444 143.288 35.204C143.636 34.964 143.81 34.616 143.81 34.16C143.81 33.248 143.138 32.792 141.794 32.792H139.202V35.564ZM141.974 39.668C142.694 39.668 143.234 39.554 143.594 39.326C143.954 39.098 144.134 38.744 144.134 38.264C144.134 37.772 143.966 37.406 143.63 37.166C143.306 36.926 142.79 36.806 142.082 36.806H139.202V39.668H141.974ZM157.109 36.968H155.129V41H153.401V31.46H155.129V35.492H157.145L160.241 31.46H162.095L158.477 36.05L162.347 41H160.313L157.109 36.968ZM167.928 41.108C166.98 41.108 166.128 40.898 165.372 40.478C164.616 40.058 164.022 39.482 163.59 38.75C163.17 38.006 162.96 37.166 162.96 36.23C162.96 35.294 163.17 34.46 163.59 33.728C164.022 32.984 164.616 32.408 165.372 32C166.128 31.58 166.98 31.37 167.928 31.37C168.876 31.37 169.722 31.58 170.466 32C171.222 32.408 171.81 32.984 172.23 33.728C172.662 34.46 172.878 35.294 172.878 36.23C172.878 37.166 172.662 38.006 172.23 38.75C171.81 39.482 171.222 40.058 170.466 40.478C169.722 40.898 168.876 41.108 167.928 41.108ZM167.928 39.596C168.54 39.596 169.086 39.458 169.566 39.182C170.058 38.894 170.442 38.498 170.718 37.994C170.994 37.478 171.132 36.89 171.132 36.23C171.132 35.57 170.994 34.988 170.718 34.484C170.442 33.968 170.058 33.572 169.566 33.296C169.086 33.02 168.54 32.882 167.928 32.882C167.316 32.882 166.764 33.02 166.272 33.296C165.792 33.572 165.408 33.968 165.12 34.484C164.844 34.988 164.706 35.57 164.706 36.23C164.706 36.89 164.844 37.478 165.12 37.994C165.408 38.498 165.792 38.894 166.272 39.182C166.764 39.458 167.316 39.596 167.928 39.596ZM180.431 31.37C181.355 31.37 182.183 31.574 182.915 31.982C183.647 32.39 184.217 32.96 184.625 33.692C185.045 34.424 185.255 35.27 185.255 36.23C185.255 37.19 185.045 38.042 184.625 38.786C184.217 39.518 183.647 40.088 182.915 40.496C182.183 40.904 181.355 41.108 180.431 41.108C179.747 41.108 179.117 40.976 178.541 40.712C177.977 40.448 177.497 40.064 177.101 39.56V44.492H175.373V31.46H177.029V32.972C177.413 32.444 177.899 32.048 178.487 31.784C179.075 31.508 179.723 31.37 180.431 31.37ZM180.287 39.596C180.899 39.596 181.445 39.458 181.925 39.182C182.417 38.894 182.801 38.498 183.077 37.994C183.365 37.478 183.509 36.89 183.509 36.23C183.509 35.57 183.365 34.988 183.077 34.484C182.801 33.968 182.417 33.572 181.925 33.296C181.445 33.02 180.899 32.882 180.287 32.882C179.687 32.882 179.141 33.026 178.649 33.314C178.169 33.59 177.785 33.98 177.497 34.484C177.221 34.988 177.083 35.57 177.083 36.23C177.083 36.89 177.221 37.478 177.497 37.994C177.773 38.498 178.157 38.894 178.649 39.182C179.141 39.458 179.687 39.596 180.287 39.596ZM192.826 36.032C193.462 36.2 193.954 36.47 194.302 36.842C194.65 37.214 194.824 37.676 194.824 38.228C194.824 38.792 194.632 39.296 194.248 39.74C193.864 40.172 193.33 40.514 192.646 40.766C191.974 41.006 191.218 41.126 190.378 41.126C189.67 41.126 188.974 41.036 188.29 40.856C187.618 40.664 187.018 40.394 186.49 40.046L187.012 38.732C187.468 39.02 187.99 39.248 188.578 39.416C189.166 39.572 189.76 39.65 190.36 39.65C191.176 39.65 191.824 39.512 192.304 39.236C192.796 38.948 193.042 38.564 193.042 38.084C193.042 37.64 192.844 37.298 192.448 37.058C192.064 36.818 191.518 36.698 190.81 36.698H189.064V35.456H190.684C191.332 35.456 191.842 35.342 192.214 35.114C192.586 34.886 192.772 34.574 192.772 34.178C192.772 33.746 192.55 33.41 192.106 33.17C191.674 32.93 191.086 32.81 190.342 32.81C189.394 32.81 188.392 33.056 187.336 33.548L186.868 32.216C188.032 31.628 189.25 31.334 190.522 31.334C191.29 31.334 191.98 31.442 192.592 31.658C193.204 31.874 193.684 32.18 194.032 32.576C194.38 32.972 194.554 33.422 194.554 33.926C194.554 34.394 194.398 34.814 194.086 35.186C193.774 35.558 193.354 35.84 192.826 36.032ZM197.451 31.46H199.179V38.408L205.029 31.46H206.595V41H204.867V34.052L199.035 41H197.451V31.46ZM209.949 31.46H211.677V35.51H217.113V31.46H218.841V41H217.113V37.004H211.677V41H209.949V31.46ZM230.715 31.46L226.089 41.954C225.681 42.926 225.201 43.61 224.649 44.006C224.109 44.402 223.455 44.6 222.687 44.6C222.219 44.6 221.763 44.522 221.319 44.366C220.887 44.222 220.527 44.006 220.239 43.718L220.977 42.422C221.469 42.89 222.039 43.124 222.687 43.124C223.107 43.124 223.455 43.01 223.731 42.782C224.019 42.566 224.277 42.188 224.505 41.648L224.811 40.982L220.599 31.46H222.399L225.729 39.092L229.023 31.46H230.715Z" fill="black"/>
</svg>
